<?xml version="1.0" encoding="utf-8"?>
<svg enable-background="new 0 0 128 128" height="128px" id="Layer_1" version="1.1" viewBox="0 0 128 128" width="128px" xmlns="http://www.w3.org/2000/svg">
  <path d="M86,13.964h-9.334H74V4h4c1.104,0,2-0.896,2-2s-0.896-2-2-2h-7H57h-7c-1.104,0-2,0.896-2,2s0.896,2,2,2h4  v9.964h-2.667H42c-1.104,0-2,0.896-2,2s0.896,2,2,2h6v70.433c0,1.857,1.496,3.371,3.333,3.371h3.314l7.496,18.689  c0.169,0.423,0.48,0.751,0.856,0.971V127c0,0.553,0.448,1,1,1c0.552,0,1-0.447,1-1v-15.572c0.376-0.22,0.687-0.548,0.856-0.971  l7.496-18.689h3.313c1.838,0,3.334-1.514,3.334-3.371V17.964h6c1.104,0,2-0.896,2-2S87.104,13.964,86,13.964z M70,13.964h-5V4h5  V13.964z M58,17.964h5v7.968h-5V17.964z M65,17.964h5v7.968h-5V17.964z M58,4h5v9.964h-5V4z M54,17.964v7.968h-2v-7.968H54z   M64,104.34l-5.043-12.572h10.086L64,104.34z M72,87.768H56h-4v-7.391h8c0.552,0,1-0.447,1-1s-0.448-1-1-1h-8v-7.973h5  c0.552,0,1-0.447,1-1s-0.448-1-1-1h-5V60.43h8c0.552,0,1-0.448,1-1c0-0.552-0.448-1-1-1h-8v-7.974h5c0.552,0,1-0.448,1-1  c0-0.552-0.448-1-1-1h-5v-7.973h8c0.552,0,1-0.448,1-1c0-0.552-0.448-1-1-1h-8v-8.552h5h14h5v57.834h-4V87.768z M76,25.932h-2  v-7.968h2V25.932z" style="fill: rgb(143, 0, 0);"/>
</svg>